<?xml version="1.0" standalone="no"?>
<!DOCTYPE svg PUBLIC "-//W3C//DTD SVG 20010904//EN"
 "http://www.w3.org/TR/2001/REC-SVG-20010904/DTD/svg10.dtd">
<svg version="1.0" xmlns="http://www.w3.org/2000/svg"
 width="879.000000pt" height="304.000000pt" viewBox="0 0 879.000000 304.000000"
 preserveAspectRatio="xMidYMid meet">

<g transform="translate(0.000000,304.000000) scale(0.100000,-0.100000)"
fill="#6366f1" stroke="none">
<path d="M724 2830 c-164 -24 -328 -139 -400 -281 -54 -107 -54 -105 -54
-1023 0 -920 -1 -906 55 -1016 55 -108 189 -220 314 -262 l66 -23 905 -3 c986
-3 976 -4 1099 53 76 36 191 150 230 230 62 125 62 134 59 1066 -4 935 0 878
-70 1011 -37 70 -135 166 -207 202 -109 56 -110 56 -1066 55 -484 -1 -903 -5
-931 -9z m1901 -208 c98 -45 162 -132 185 -247 8 -43 10 -294 8 -890 l-3 -830
-29 -63 c-52 -113 -136 -167 -284 -182 -109 -12 -1500 -12 -1682 -1 -180 12
-254 45 -315 141 -57 90 -56 72 -53 1001 3 854 3 854 25 901 43 92 131 163
230 187 21 5 441 9 953 8 l915 -2 50 -23z"/>
<path d="M1061 2298 c-25 -13 -54 -36 -65 -51 -21 -28 -21 -40 -24 -679 -2
-642 -2 -651 18 -694 39 -79 150 -108 240 -61 84 43 80 4 80 740 0 716 2 690
-63 734 -18 13 -55 25 -87 28 -46 5 -63 2 -99 -17z"/>
<path d="M2067 2306 c-99 -37 -95 -9 -103 -697 -4 -327 -4 -620 0 -651 8 -61
34 -109 79 -142 22 -17 43 -21 97 -21 78 0 110 17 145 76 19 33 20 52 20 691
0 652 0 657 -21 685 -45 59 -143 86 -217 59z"/>
<path d="M775 2055 c-50 -18 -91 -62 -105 -115 -7 -28 -10 -161 -8 -403 l3
-362 27 -47 c35 -59 95 -91 165 -86 l48 3 3 500 c2 461 1 501 -15 513 -22 16
-68 15 -118 -3z"/>
<path d="M2384 2063 c-14 -10 -27 -964 -14 -999 8 -20 16 -24 53 -24 64 0 127
36 157 90 l25 45 0 385 c0 370 -1 387 -21 424 -29 57 -61 77 -130 82 -32 3
-64 1 -70 -3z"/>
<path d="M1413 1703 l-43 -4 0 -133 c0 -89 4 -136 12 -144 9 -9 80 -12 260
-12 234 0 248 1 258 19 5 11 10 76 10 144 l0 124 -61 7 c-63 6 -360 6 -436 -1z"/>
<path d="M5930 2100 l0 -470 75 0 75 0 0 118 0 118 31 30 30 29 19 -25 c11
-14 57 -80 102 -147 l83 -123 83 0 c46 0 82 4 80 8 -1 5 -61 90 -131 190 -71
99 -129 184 -129 187 0 4 55 67 121 141 67 74 121 139 121 144 0 6 -32 10 -74
10 l-75 0 -128 -140 -128 -140 -3 270 -2 270 -75 0 -75 0 0 -470z"/>
<path d="M3504 2513 c11 -45 206 -773 222 -830 l15 -53 83 0 82 0 88 323 c49
177 92 327 95 334 3 7 42 -117 85 -275 44 -158 86 -308 94 -334 l14 -48 82 0
83 0 28 108 c31 119 202 757 211 785 5 15 -3 17 -75 17 l-80 0 -10 -37 c-6
-21 -42 -166 -81 -323 -39 -157 -74 -293 -78 -304 -5 -13 -37 87 -102 323
l-94 341 -73 0 -72 0 -9 -32 c-5 -18 -47 -169 -93 -335 -46 -167 -86 -303 -89
-303 -3 0 -44 150 -91 333 l-85 332 -78 3 -78 3 6 -28z"/>
<path d="M8100 2391 l0 -80 -57 -3 -58 -3 -3 -57 -3 -58 61 0 60 0 0 -222 c0
-212 1 -225 23 -262 31 -55 85 -81 167 -81 95 0 100 3 100 74 l0 60 -34 -6
c-47 -7 -83 3 -97 28 -7 14 -11 89 -10 213 l0 191 71 3 70 3 0 59 0 60 -70 0
-69 0 -3 78 -3 77 -72 3 -73 3 0 -80z"/>
<path d="M4927 2310 c-165 -42 -265 -208 -238 -397 18 -122 79 -211 179 -260
77 -38 201 -40 277 -5 69 31 128 93 161 166 24 53 28 74 28 156 0 83 -3 103
-28 157 -33 72 -95 135 -162 164 -52 23 -162 33 -217 19z m180 -148 c52 -37
78 -103 78 -197 0 -92 -23 -148 -76 -185 -33 -24 -102 -37 -143 -26 -36 9 -84
53 -108 100 -33 62 -31 175 3 242 37 72 79 97 154 92 42 -3 70 -10 92 -26z"/>
<path d="M5723 2311 c-42 -11 -82 -36 -110 -70 l-23 -26 0 48 0 47 -70 0 -70
0 0 -340 0 -340 75 0 75 0 0 218 c0 192 2 221 19 252 31 58 63 75 142 75 l69
0 0 68 c0 57 -3 67 -17 67 -10 0 -27 2 -38 4 -11 3 -35 1 -52 -3z"/>
<path d="M6770 2307 c-147 -41 -232 -165 -232 -337 0 -149 62 -259 180 -317
77 -38 201 -40 277 -5 68 31 128 93 161 166 24 52 28 74 29 151 0 62 -6 106
-18 143 -25 71 -101 153 -169 182 -64 28 -165 35 -228 17z m181 -140 c19 -12
45 -43 59 -67 21 -38 25 -58 25 -130 0 -69 -5 -93 -23 -127 -60 -114 -211
-127 -286 -24 -77 104 -45 304 55 354 51 25 129 22 170 -6z"/>
<path d="M7300 2058 c0 -148 5 -269 11 -291 40 -147 254 -196 373 -86 l43 38
-1 -42 -1 -42 73 -3 72 -3 -2 338 -3 338 -70 0 -70 0 -5 -230 c-6 -255 -8
-266 -73 -305 -58 -36 -150 -19 -179 33 -9 15 -14 93 -18 262 l-5 240 -72 3
-73 3 0 -253z"/>
<path d="M4310 863 l0 -463 70 0 70 0 0 459 0 459 -70 4 -70 3 0 -462z"/>
<path d="M3540 851 l0 -451 80 0 80 0 0 160 0 159 129 -1 c162 -1 214 15 282
82 61 61 84 131 77 234 -8 114 -60 191 -163 238 -46 21 -65 23 -267 26 l-218
3 0 -450z m417 300 c58 -27 87 -84 81 -158 -5 -61 -28 -98 -79 -128 -27 -16
-57 -21 -146 -24 l-113 -3 0 166 0 166 108 0 c83 0 116 -5 149 -19z"/>
<path d="M4752 1061 c-81 -28 -142 -97 -142 -161 0 -18 6 -20 61 -20 54 0 64
3 82 26 57 73 203 70 241 -5 9 -16 16 -46 16 -64 l0 -35 -92 -7 c-147 -10
-207 -22 -254 -50 -55 -32 -84 -85 -84 -155 0 -124 88 -202 226 -201 68 0 119
17 171 57 l33 25 0 -35 0 -36 70 0 70 0 0 258 c0 288 -6 315 -71 365 -77 57
-222 74 -327 38z m258 -410 c0 -78 -76 -143 -170 -144 -81 -1 -129 50 -108
113 16 47 76 66 211 69 l67 1 0 -39z"/>
<path d="M5530 1064 c-19 -8 -50 -29 -67 -46 l-33 -32 0 42 0 42 -70 0 -70 0
0 -335 0 -335 75 0 75 0 0 231 c0 262 3 274 75 309 49 24 83 25 130 6 62 -26
66 -48 65 -312 l0 -234 75 0 76 0 -3 273 -3 274 -28 42 c-39 59 -109 91 -197
91 -36 -1 -81 -8 -100 -16z"/>
<path d="M6240 1069 c-14 -5 -42 -26 -62 -47 l-38 -36 0 42 0 42 -70 0 -70 0
0 -335 0 -335 69 0 c63 0 69 2 75 22 3 13 6 117 6 232 0 192 2 211 20 241 54
87 202 83 240 -6 7 -17 13 -115 14 -255 l3 -229 72 -3 72 -3 -3 268 c-3 256
-4 270 -26 310 -12 24 -41 55 -63 70 -35 23 -53 27 -127 30 -48 2 -98 -2 -112
-8z"/>
<path d="M6900 1071 c-51 -16 -89 -41 -134 -92 -82 -92 -108 -237 -65 -375 17
-56 31 -77 78 -125 72 -72 135 -94 251 -87 121 7 203 61 245 161 l15 37 -69 0
c-61 0 -70 -3 -84 -24 -22 -33 -77 -56 -133 -56 -89 0 -159 62 -177 158 l-6
32 246 0 246 0 -7 66 c-14 137 -80 243 -181 290 -39 19 -66 24 -125 23 -41 0
-86 -4 -100 -8z m141 -112 c58 -20 97 -65 113 -131 l6 -28 -165 0 c-182 0
-179 -1 -151 63 24 57 88 103 147 106 9 1 31 -4 50 -10z"/>
<path d="M7642 1065 c-19 -8 -47 -29 -63 -46 l-29 -31 0 41 0 41 -70 0 -70 0
0 -335 0 -335 75 0 75 0 0 218 c0 187 2 222 18 251 29 58 63 76 143 76 l70 0
-3 65 -3 65 -55 2 c-32 2 -69 -4 -88 -12z"/>
</g>
</svg>
